<?xml version="1.0" encoding="UTF-8" standalone="no"?>
<!DOCTYPE svg PUBLIC "-//W3C//DTD SVG 1.1//EN"
 "http://www.w3.org/Graphics/SVG/1.1/DTD/svg11.dtd">
<!-- Generated by graphviz version 2.43.20190912.0211 (20190912.0211)
 -->
<!-- Title: HtmlParser Pages: 1 -->
<svg width="446pt" height="566pt"
 viewBox="0.00 0.00 446.39 566.00" xmlns="http://www.w3.org/2000/svg" xmlns:xlink="http://www.w3.org/1999/xlink">
<g id="graph0" class="graph" transform="scale(1 1) rotate(0) translate(4 562)">
<title>HtmlParser</title>
<polygon fill="white" stroke="transparent" points="-4,4 -4,-562 442.39,-562 442.39,4 -4,4"/>
<!-- parse -->
<g id="node1" class="node">
<title>parse</title>
<ellipse fill="none" stroke="black" cx="124.85" cy="-540" rx="29.5" ry="18"/>
<text text-anchor="middle" x="124.85" y="-536.3" font-family="Times,serif" font-size="14.00">parse</text>
</g>
<!-- parseNodes -->
<g id="node2" class="node">
<title>parseNodes</title>
<ellipse fill="none" stroke="black" cx="124.85" cy="-453" rx="51.99" ry="18"/>
<text text-anchor="middle" x="124.85" y="-449.3" font-family="Times,serif" font-size="14.00">parseNodes</text>
</g>
<!-- parse&#45;&gt;parseNodes -->
<g id="edge1" class="edge">
<title>parse&#45;&gt;parseNodes</title>
<path fill="none" stroke="black" d="M124.85,-521.8C124.85,-510.16 124.85,-494.55 124.85,-481.24"/>
<polygon fill="black" stroke="black" points="128.35,-481.18 124.85,-471.18 121.35,-481.18 128.35,-481.18"/>
<text text-anchor="middle" x="139.35" y="-492.8" font-family="Times,serif" font-size="14.00">step1</text>
</g>
<!-- parseNode -->
<g id="node3" class="node">
<title>parseNode</title>
<ellipse fill="none" stroke="black" cx="82.85" cy="-366" rx="48.19" ry="18"/>
<text text-anchor="middle" x="82.85" y="-362.3" font-family="Times,serif" font-size="14.00">parseNode</text>
</g>
<!-- parseNodes&#45;&gt;parseNode -->
<g id="edge2" class="edge">
<title>parseNodes&#45;&gt;parseNode</title>
<path fill="none" stroke="black" d="M116.55,-435.21C110.57,-423.1 102.38,-406.53 95.57,-392.76"/>
<polygon fill="black" stroke="black" points="98.69,-391.17 91.13,-383.76 92.42,-394.27 98.69,-391.17"/>
<text text-anchor="middle" x="120.35" y="-405.8" font-family="Times,serif" font-size="14.00">step2</text>
</g>
<!-- parseElement -->
<g id="node4" class="node">
<title>parseElement</title>
<ellipse fill="none" stroke="black" cx="166.85" cy="-279" rx="59.29" ry="18"/>
<text text-anchor="middle" x="166.85" y="-275.3" font-family="Times,serif" font-size="14.00">parseElement</text>
</g>
<!-- parseNode&#45;&gt;parseElement -->
<g id="edge3" class="edge">
<title>parseNode&#45;&gt;parseElement</title>
<path fill="none" stroke="black" stroke-dasharray="1,5" d="M95,-348.53C102.78,-338.43 113.35,-325.46 123.85,-315 128.13,-310.73 132.89,-306.46 137.65,-302.43"/>
<polygon fill="black" stroke="black" points="140.06,-304.98 145.56,-295.93 135.61,-299.57 140.06,-304.98"/>
<text text-anchor="middle" x="138.35" y="-318.8" font-family="Times,serif" font-size="14.00">step3</text>
</g>
<!-- parseText -->
<g id="node5" class="node">
<title>parseText</title>
<ellipse fill="none" stroke="black" cx="44.85" cy="-279" rx="44.69" ry="18"/>
<text text-anchor="middle" x="44.85" y="-275.3" font-family="Times,serif" font-size="14.00">parseText</text>
</g>
<!-- parseNode&#45;&gt;parseText -->
<g id="edge4" class="edge">
<title>parseNode&#45;&gt;parseText</title>
<path fill="none" stroke="black" stroke-dasharray="1,5" d="M63.18,-349.41C57.59,-343.9 52.13,-337.25 48.85,-330 45.72,-323.1 44.26,-315.11 43.69,-307.58"/>
<polygon fill="black" stroke="black" points="47.18,-307.28 43.4,-297.39 40.18,-307.48 47.18,-307.28"/>
<text text-anchor="middle" x="73.35" y="-318.8" font-family="Times,serif" font-size="14.00">(or)step3</text>
</g>
<!-- parseElement&#45;&gt;parseNodes -->
<g id="edge10" class="edge">
<title>parseElement&#45;&gt;parseNodes</title>
<path fill="none" stroke="black" stroke-dasharray="1,5" d="M164.36,-297.11C160.33,-323.29 151.52,-374.68 138.85,-417 138,-419.82 137.02,-422.73 135.98,-425.61"/>
<polygon fill="black" stroke="black" points="132.64,-424.54 132.3,-435.13 139.17,-427.06 132.64,-424.54"/>
<text text-anchor="middle" x="244.35" y="-362.3" font-family="Times,serif" font-size="14.00">step9(skip if it&#39;s self&#45;closing tag)</text>
</g>
<!-- parseTagName -->
<g id="node6" class="node">
<title>parseTagName</title>
<ellipse fill="none" stroke="black" cx="116.85" cy="-192" rx="63.89" ry="18"/>
<text text-anchor="middle" x="116.85" y="-188.3" font-family="Times,serif" font-size="14.00">parseTagName</text>
</g>
<!-- parseElement&#45;&gt;parseTagName -->
<g id="edge5" class="edge">
<title>parseElement&#45;&gt;parseTagName</title>
<path fill="none" stroke="black" d="M156.97,-261.21C149.89,-249.18 140.23,-232.75 132.16,-219.03"/>
<polygon fill="black" stroke="black" points="134.96,-216.89 126.88,-210.05 128.93,-220.44 134.96,-216.89"/>
<text text-anchor="middle" x="158.35" y="-231.8" font-family="Times,serif" font-size="14.00">step4</text>
</g>
<!-- parseAttributes -->
<g id="node7" class="node">
<title>parseAttributes</title>
<ellipse fill="none" stroke="black" cx="263.85" cy="-192" rx="64.99" ry="18"/>
<text text-anchor="middle" x="263.85" y="-188.3" font-family="Times,serif" font-size="14.00">parseAttributes</text>
</g>
<!-- parseElement&#45;&gt;parseAttributes -->
<g id="edge6" class="edge">
<title>parseElement&#45;&gt;parseAttributes</title>
<path fill="none" stroke="black" d="M185.55,-261.61C200.31,-248.68 221.08,-230.47 237.52,-216.07"/>
<polygon fill="black" stroke="black" points="239.99,-218.56 245.2,-209.34 235.37,-213.3 239.99,-218.56"/>
<text text-anchor="middle" x="235.35" y="-231.8" font-family="Times,serif" font-size="14.00">step5</text>
</g>
<!-- parseAttribute -->
<g id="node8" class="node">
<title>parseAttribute</title>
<ellipse fill="none" stroke="black" cx="263.85" cy="-105" rx="61.99" ry="18"/>
<text text-anchor="middle" x="263.85" y="-101.3" font-family="Times,serif" font-size="14.00">parseAttribute</text>
</g>
<!-- parseAttributes&#45;&gt;parseAttribute -->
<g id="edge7" class="edge">
<title>parseAttributes&#45;&gt;parseAttribute</title>
<path fill="none" stroke="black" d="M263.85,-173.8C263.85,-162.16 263.85,-146.55 263.85,-133.24"/>
<polygon fill="black" stroke="black" points="267.35,-133.18 263.85,-123.18 260.35,-133.18 267.35,-133.18"/>
<text text-anchor="middle" x="278.35" y="-144.8" font-family="Times,serif" font-size="14.00">step6</text>
</g>
<!-- parseAttributeName -->
<g id="node9" class="node">
<title>parseAttributeName</title>
<ellipse fill="none" stroke="black" cx="171.85" cy="-18" rx="83.39" ry="18"/>
<text text-anchor="middle" x="171.85" y="-14.3" font-family="Times,serif" font-size="14.00">parseAttributeName</text>
</g>
<!-- parseAttribute&#45;&gt;parseAttributeName -->
<g id="edge8" class="edge">
<title>parseAttribute&#45;&gt;parseAttributeName</title>
<path fill="none" stroke="black" d="M246.11,-87.61C232.32,-74.88 213.01,-57.03 197.54,-42.74"/>
<polygon fill="black" stroke="black" points="199.56,-39.84 189.84,-35.63 194.81,-44.99 199.56,-39.84"/>
<text text-anchor="middle" x="237.35" y="-57.8" font-family="Times,serif" font-size="14.00">step7</text>
</g>
<!-- ParseAttributeValue -->
<g id="node10" class="node">
<title>ParseAttributeValue</title>
<ellipse fill="none" stroke="black" cx="355.85" cy="-18" rx="82.59" ry="18"/>
<text text-anchor="middle" x="355.85" y="-14.3" font-family="Times,serif" font-size="14.00">ParseAttributeValue</text>
</g>
<!-- parseAttribute&#45;&gt;ParseAttributeValue -->
<g id="edge9" class="edge">
<title>parseAttribute&#45;&gt;ParseAttributeValue</title>
<path fill="none" stroke="black" d="M281.58,-87.61C295.37,-74.88 314.68,-57.03 330.15,-42.74"/>
<polygon fill="black" stroke="black" points="332.88,-44.99 337.85,-35.63 328.13,-39.84 332.88,-44.99"/>
<text text-anchor="middle" x="329.35" y="-57.8" font-family="Times,serif" font-size="14.00">step8</text>
</g>
</g>
</svg>
