<?xml version="1.0" encoding="UTF-8" standalone="no"?>
<!DOCTYPE svg PUBLIC "-//W3C//DTD SVG 1.1//EN"
 "http://www.w3.org/Graphics/SVG/1.1/DTD/svg11.dtd">
<!-- Generated by graphviz version 2.43.0 (0)
 -->
<!-- Title: CrawlerHtmlParser Pages: 1 -->
<svg width="211pt" height="345pt"
 viewBox="0.00 0.00 210.93 345.40" xmlns="http://www.w3.org/2000/svg" xmlns:xlink="http://www.w3.org/1999/xlink">
<g id="graph0" class="graph" transform="scale(1 1) rotate(0) translate(4 341.4)">
<title>CrawlerHtmlParser</title>
<polygon fill="white" stroke="transparent" points="-4,4 -4,-341.4 206.93,-341.4 206.93,4 -4,4"/>
<!-- html -->
<g id="node1" class="node">
<title>html</title>
<polygon fill="none" stroke="black" points="101.93,-314.9 101.93,-336.9 155.93,-336.9 155.93,-314.9 101.93,-314.9"/>
<text text-anchor="middle" x="128.77" y="-321.7" font-family="Times,serif" font-size="14.00">html</text>
</g>
<!-- body -->
<g id="node2" class="node">
<title>body</title>
<polygon fill="none" stroke="black" points="64.93,-236.3 64.93,-258.3 118.93,-258.3 118.93,-236.3 64.93,-236.3"/>
<text text-anchor="middle" x="91.93" y="-243.1" font-family="Times,serif" font-size="14.00">body</text>
</g>
<!-- html&#45;&gt;body -->
<g id="edge1" class="edge">
<title>html:f1&#45;&gt;body:f1</title>
<path fill="none" stroke="black" d="M119.7,-314.65C115.68,-309.35 111.16,-302.8 107.93,-296.4 103.52,-287.63 99.95,-277.39 97.32,-268.53"/>
<polygon fill="black" stroke="black" points="100.61,-267.31 94.57,-258.6 93.86,-269.17 100.61,-267.31"/>
<text text-anchor="middle" x="114.93" y="-285.2" font-family="Times,serif" font-size="14.00">①</text>
</g>
<!-- head -->
<g id="node3" class="node">
<title>head</title>
<polygon fill="none" stroke="black" points="137.93,-236.3 137.93,-258.3 191.93,-258.3 191.93,-236.3 137.93,-236.3"/>
<text text-anchor="middle" x="164.65" y="-243.1" font-family="Times,serif" font-size="14.00">head</text>
</g>
<!-- html&#45;&gt;head -->
<g id="edge11" class="edge">
<title>html&#45;&gt;head</title>
<path fill="none" stroke="black" d="M126.78,-314.75C125.15,-304.6 124.07,-288.81 129.93,-276.8 132.1,-272.37 135.31,-268.39 138.93,-264.92"/>
<polygon fill="black" stroke="black" points="141.23,-267.56 146.72,-258.5 136.78,-262.16 141.23,-267.56"/>
<text text-anchor="middle" x="136.93" y="-285.2" font-family="Times,serif" font-size="14.00">⑪</text>
</g>
<!-- div#main -->
<g id="node5" class="node">
<title>div#main</title>
<polygon fill="none" stroke="black" points="49.49,-157.7 49.49,-179.7 118.38,-179.7 118.38,-157.7 49.49,-157.7"/>
<text text-anchor="middle" x="83.93" y="-164.5" font-family="Times,serif" font-size="14.00">div#main</text>
</g>
<!-- body&#45;&gt;div#main -->
<g id="edge2" class="edge">
<title>body:f1&#45;&gt;div#main:f1</title>
<path fill="none" stroke="black" d="M80.29,-236.05C75.83,-230.95 71.26,-224.56 68.93,-217.8 65.73,-208.49 68.09,-198.08 71.8,-189.24"/>
<polygon fill="black" stroke="black" points="75.03,-190.6 76.34,-180.08 68.76,-187.49 75.03,-190.6"/>
<text text-anchor="middle" x="75.93" y="-206.6" font-family="Times,serif" font-size="14.00">②</text>
</g>
<!-- head&#45;&gt;html -->
<g id="edge14" class="edge">
<title>head&#45;&gt;html</title>
<path fill="none" stroke="black" d="M160.8,-258.34C156.71,-268.14 150.17,-283.42 143.93,-296.4 142.46,-299.47 140.83,-302.7 139.21,-305.83"/>
<polygon fill="black" stroke="black" points="136.11,-304.22 134.53,-314.7 142.3,-307.49 136.11,-304.22"/>
<text text-anchor="middle" x="159.93" y="-285.2" font-family="Times,serif" font-size="14.00">⑭</text>
</g>
<!-- title -->
<g id="node4" class="node">
<title>title</title>
<polygon fill="none" stroke="black" points="148.93,-157.7 148.93,-179.7 202.93,-179.7 202.93,-157.7 148.93,-157.7"/>
<text text-anchor="middle" x="175.82" y="-164.5" font-family="Times,serif" font-size="14.00">title</text>
</g>
<!-- head&#45;&gt;title -->
<g id="edge12" class="edge">
<title>head&#45;&gt;title</title>
<path fill="none" stroke="black" d="M159.01,-236.19C154.04,-226.34 148.41,-211.02 152.93,-198.2 154.24,-194.51 156.25,-190.94 158.55,-187.65"/>
<polygon fill="black" stroke="black" points="161.42,-189.67 165.03,-179.71 155.99,-185.25 161.42,-189.67"/>
<text text-anchor="middle" x="159.93" y="-206.6" font-family="Times,serif" font-size="14.00">⑫</text>
</g>
<!-- title&#45;&gt;head -->
<g id="edge13" class="edge">
<title>title&#45;&gt;head</title>
<path fill="none" stroke="black" d="M174.46,-179.96C172.77,-191.7 169.97,-211.23 167.84,-226.06"/>
<polygon fill="black" stroke="black" points="164.33,-225.89 166.37,-236.29 171.26,-226.88 164.33,-225.89"/>
<text text-anchor="middle" x="177.93" y="-206.6" font-family="Times,serif" font-size="14.00">⑬</text>
</g>
<!-- div#main&#45;&gt;body -->
<g id="edge10" class="edge">
<title>div#main&#45;&gt;body</title>
<path fill="none" stroke="black" d="M85.01,-179.96C86.23,-191.7 88.27,-211.23 89.82,-226.06"/>
<polygon fill="black" stroke="black" points="86.37,-226.7 90.89,-236.29 93.33,-225.98 86.37,-226.7"/>
<text text-anchor="middle" x="95.93" y="-206.6" font-family="Times,serif" font-size="14.00">⑩</text>
</g>
<!-- div#parent -->
<g id="node6" class="node">
<title>div#parent</title>
<polygon fill="none" stroke="black" points="0,-79.1 0,-101.1 75.87,-101.1 75.87,-79.1 0,-79.1"/>
<text text-anchor="middle" x="37.93" y="-85.9" font-family="Times,serif" font-size="14.00">div#parent</text>
</g>
<!-- div#main&#45;&gt;div#parent -->
<g id="edge4" class="edge">
<title>div#main:f1&#45;&gt;div#parent:f1</title>
<path fill="none" stroke="black" d="M75.35,-157.48C71.38,-152.08 66.71,-145.44 62.93,-139.2 57.39,-130.05 51.91,-119.51 47.51,-110.56"/>
<polygon fill="black" stroke="black" points="50.53,-108.77 43.04,-101.27 44.22,-111.8 50.53,-108.77"/>
<text text-anchor="middle" x="69.93" y="-128" font-family="Times,serif" font-size="14.00">③</text>
</g>
<!-- p -->
<g id="node8" class="node">
<title>p</title>
<polygon fill="none" stroke="black" points="93.93,-79.1 93.93,-101.1 147.93,-101.1 147.93,-79.1 93.93,-79.1"/>
<text text-anchor="middle" x="120.93" y="-85.9" font-family="Times,serif" font-size="14.00">p</text>
</g>
<!-- div#main&#45;&gt;p -->
<g id="edge3" class="edge">
<title>div#main:f1&#45;&gt;p:f1</title>
<path fill="none" stroke="black" d="M81.61,-157.55C80.02,-147.18 79.12,-131.56 84.93,-119.6 87.07,-115.2 90.22,-111.23 93.77,-107.73"/>
<polygon fill="black" stroke="black" points="96.07,-110.37 101.44,-101.23 91.54,-105.03 96.07,-110.37"/>
<text text-anchor="middle" x="91.93" y="-128" font-family="Times,serif" font-size="14.00">⑥</text>
</g>
<!-- div#child -->
<g id="node7" class="node">
<title>div#child</title>
<polygon fill="none" stroke="black" points="5.49,-0.5 5.49,-22.5 74.38,-22.5 74.38,-0.5 5.49,-0.5"/>
<text text-anchor="middle" x="39.93" y="-7.3" font-family="Times,serif" font-size="14.00">div#child</text>
</g>
<!-- div#parent&#45;&gt;div#child -->
<g id="edge5" class="edge">
<title>div#parent:f1&#45;&gt;div#child:f1</title>
<path fill="none" stroke="black" d="M31.72,-78.98C29.07,-73.61 26.27,-66.95 24.93,-60.6 23.14,-52.08 22.9,-49.47 24.93,-41 25.69,-37.86 26.83,-34.68 28.16,-31.62"/>
<polygon fill="black" stroke="black" points="31.38,-33.01 32.78,-22.5 25.14,-29.84 31.38,-33.01"/>
<text text-anchor="middle" x="31.93" y="-49.4" font-family="Times,serif" font-size="14.00">④</text>
</g>
<!-- div#child&#45;&gt;div#parent -->
<g id="edge6" class="edge">
<title>div#child:f1&#45;&gt;div#parent:f1</title>
<path fill="none" stroke="black" d="M39.75,-22.81C39.57,-32.76 39.29,-47.65 38.93,-60.6 38.86,-63.24 38.78,-66.02 38.69,-68.77"/>
<polygon fill="black" stroke="black" points="35.19,-68.78 38.35,-78.89 42.19,-69.02 35.19,-68.78"/>
<text text-anchor="middle" x="46.93" y="-49.4" font-family="Times,serif" font-size="14.00">⑤</text>
</g>
<!-- p&#45;&gt;div#main -->
<g id="edge9" class="edge">
<title>p:f1&#45;&gt;div#main:f1</title>
<path fill="none" stroke="black" d="M116.02,-101.48C111.66,-111.48 105.06,-126.39 98.93,-139.2 97.47,-142.26 95.89,-145.47 94.31,-148.61"/>
<polygon fill="black" stroke="black" points="91.18,-147.06 89.76,-157.56 97.42,-150.23 91.18,-147.06"/>
<text text-anchor="middle" x="114.93" y="-128" font-family="Times,serif" font-size="14.00">⑨</text>
</g>
<!-- em -->
<g id="node9" class="node">
<title>em</title>
<polygon fill="none" stroke="black" points="99.93,-0.5 99.93,-22.5 153.93,-22.5 153.93,-0.5 99.93,-0.5"/>
<text text-anchor="middle" x="126.49" y="-7.3" font-family="Times,serif" font-size="14.00">em</text>
</g>
<!-- p&#45;&gt;em -->
<g id="edge7" class="edge">
<title>p:f1&#45;&gt;em:f1</title>
<path fill="none" stroke="black" d="M115.26,-78.72C111.02,-68.73 106.5,-53.83 109.93,-41 110.81,-37.75 112.13,-34.48 113.67,-31.36"/>
<polygon fill="black" stroke="black" points="116.72,-33.07 118.65,-22.65 110.65,-29.59 116.72,-33.07"/>
<text text-anchor="middle" x="116.93" y="-49.4" font-family="Times,serif" font-size="14.00">⑦</text>
</g>
<!-- em&#45;&gt;p -->
<g id="edge8" class="edge">
<title>em&#45;&gt;p</title>
<path fill="none" stroke="black" d="M126.42,-22.83C125.9,-32.58 125.02,-47.59 123.93,-60.6 123.71,-63.29 123.44,-66.12 123.17,-68.91"/>
<polygon fill="black" stroke="black" points="119.66,-68.77 122.09,-79.09 126.62,-69.51 119.66,-68.77"/>
<text text-anchor="middle" x="132.93" y="-49.4" font-family="Times,serif" font-size="14.00">⑧</text>
</g>
</g>
</svg>
